<svg width="98" height="21" viewBox="0 0 98 21" fill="none" xmlns="http://www.w3.org/2000/svg">
<path d="M1 17.5C4.48299 15.6134 13.5388 12.9723 21.898 17.5C30.2571 22.0277 41.1818 19.3866 45.5993 17.5C49.3372 15.9037 59.0046 13.6688 67.7715 17.5C76.5385 21.3312 89.604 19.0963 95.0408 17.5M1 10.5C4.48299 8.61344 13.5388 5.97226 21.898 10.5C30.2571 15.0277 41.1818 12.3866 45.5993 10.5C49.3372 8.90368 59.0046 6.66884 67.7715 10.5C76.5385 14.3312 89.604 12.0963 95.0408 10.5M2.95918 3.5C6.44218 1.61344 15.498 -1.02774 23.8571 3.5C32.2163 8.02774 43.141 5.38656 47.5585 3.5C51.2963 1.90368 60.9638 -0.331163 69.7307 3.5C78.4977 7.33116 91.5631 5.09632 97 3.5" stroke="#877241"/>
</svg>
