<svg width="11" height="11" viewBox="0 0 11 11" fill="none" xmlns="http://www.w3.org/2000/svg">
<path d="M4 4.31525H6.29064V7.76098H7V9H4V7.76098H4.76847V5.55426H4V4.31525ZM4.68966 2.80491C4.68966 2.69337 4.711 2.58936 4.75369 2.49289C4.79967 2.39341 4.86207 2.30749 4.94089 2.23514C5.0197 2.16279 5.11166 2.10551 5.21675 2.06331C5.32512 2.0211 5.44171 2 5.5665 2C5.68473 2 5.79639 2.0211 5.90148 2.06331C6.00657 2.10551 6.09852 2.16279 6.17734 2.23514C6.25616 2.30749 6.31856 2.39341 6.36453 2.49289C6.41051 2.58936 6.4335 2.69337 6.4335 2.80491C6.4335 2.91645 6.41051 3.02196 6.36453 3.12145C6.31856 3.21792 6.25616 3.30233 6.17734 3.37468C6.09852 3.44703 6.00657 3.50431 5.90148 3.54651C5.79639 3.58872 5.68473 3.60982 5.5665 3.60982C5.44171 3.60982 5.32512 3.58872 5.21675 3.54651C5.11166 3.50431 5.0197 3.44703 4.94089 3.37468C4.86207 3.30233 4.79967 3.21792 4.75369 3.12145C4.711 3.02196 4.68966 2.91645 4.68966 2.80491Z" fill="#928043"/>
<circle cx="5.5" cy="5.5" r="5" stroke="#928043"/>
</svg>
