<svg width="241" height="147" viewBox="0 0 241 147" fill="none" xmlns="http://www.w3.org/2000/svg">
<g filter="url(#filter0_d_154_1612)">
<path d="M25.96 27.88C25.5333 27.88 25.2 28.0267 24.96 28.32C24.72 28.5867 24.6 28.8933 24.6 29.24H22.32C22.32 28.2533 22.6667 27.4133 23.36 26.72C24.08 26 24.9067 25.64 25.84 25.64H43.96V27.88H34.6V53H32.2V27.88H25.96ZM64.0569 49.64C64.0569 50.0133 64.1769 50.3333 64.4169 50.6C64.6835 50.84 64.9902 50.96 65.3369 50.96C65.8702 50.96 66.2569 50.7333 66.4969 50.28L68.2569 51.6C68.0435 52.0533 67.6702 52.44 67.1369 52.76C66.6035 53.0533 66.0035 53.2 65.3369 53.2C64.2702 53.2 63.3902 52.8667 62.6969 52.2C62.0035 51.5333 61.6569 50.6667 61.6569 49.6V39.12C61.6569 37.6533 61.2702 36.5467 60.4969 35.8C59.7502 35.0267 58.6435 34.64 57.1769 34.64C55.8969 34.64 54.7769 34.9867 53.8169 35.68C52.8835 36.3467 51.9102 37.36 50.8969 38.72V52.88H48.4969V23.84H50.8969V35.92C52.5769 33.6267 54.7635 32.48 57.4569 32.48C59.6435 32.48 61.2835 33.04 62.3769 34.16C63.4969 35.28 64.0569 36.8933 64.0569 39V49.64ZM78.9922 53.4C76.9922 53.4 75.2989 52.9867 73.9122 52.16C72.5255 51.3333 71.4722 50.2 70.7522 48.76C70.0589 47.2933 69.7122 45.64 69.7122 43.8C69.7122 41.9867 70.0455 40.2267 70.7122 38.52C71.4055 36.8133 72.4322 35.4133 73.7922 34.32C75.1789 33.2267 76.8589 32.68 78.8322 32.68C80.1389 32.68 81.3522 32.9333 82.4722 33.44C83.5922 33.9467 84.4722 34.6667 85.1122 35.6C85.7789 36.5333 86.1122 37.6133 86.1122 38.84C86.1122 40.8133 85.2722 42.3467 83.5922 43.44C81.9122 44.5067 79.5922 45.0267 76.6322 45L72.2322 44.96C72.4722 47.0133 73.1522 48.5733 74.2722 49.64C75.4189 50.7067 76.9922 51.24 78.9922 51.24C80.1922 51.24 81.2989 51.08 82.3122 50.76C83.3522 50.4133 84.3522 49.8933 85.3122 49.2L86.5122 50.8C85.4989 51.6 84.3389 52.24 83.0322 52.72C81.7522 53.1733 80.4055 53.4 78.9922 53.4ZM77.1522 42.92C81.5255 42.92 83.7122 41.5467 83.7122 38.8C83.7122 37.4667 83.2455 36.48 82.3122 35.84C81.4055 35.1733 80.2855 34.84 78.9522 34.84C77.4589 34.84 76.1922 35.2667 75.1522 36.12C74.1389 36.9733 73.3789 38.0267 72.8722 39.28C72.3655 40.5333 72.1122 41.7467 72.1122 42.92H77.1522ZM105.555 27.92C105.021 27.92 104.621 27.96 104.355 28.04C104.115 28.0933 103.901 28.2133 103.715 28.4C103.555 28.56 103.408 28.7867 103.275 29.08C103.168 29.3467 103.115 29.6 103.115 29.84L100.915 29.8C100.968 28.5467 101.368 27.5467 102.115 26.8C102.515 26.4267 102.981 26.16 103.515 26C104.075 25.8133 104.768 25.7067 105.595 25.68H123.075V27.92H107.955V37.44H118.275V39.68H107.955V53.04H105.555V27.92ZM129.838 49.64C129.838 50.0133 129.958 50.3333 130.198 50.6C130.464 50.84 130.771 50.96 131.118 50.96C131.651 50.96 132.038 50.7333 132.278 50.28L134.038 51.6C133.824 52.0533 133.451 52.44 132.918 52.76C132.384 53.0533 131.784 53.2 131.118 53.2C130.051 53.2 129.171 52.8667 128.478 52.2C127.784 51.5333 127.438 50.6667 127.438 49.6V23.96H129.838V49.64ZM145.373 53.4C143.48 53.4 141.787 52.96 140.293 52.08C138.827 51.2 137.68 49.9733 136.853 48.4C136.027 46.8267 135.613 45.04 135.613 43.04C135.613 41.04 136.027 39.2533 136.853 37.68C137.707 36.08 138.867 34.84 140.333 33.96C141.827 33.0533 143.52 32.6 145.413 32.6C147.28 32.6 148.947 33.0533 150.413 33.96C151.907 34.84 153.067 36.0667 153.893 37.64C154.747 39.2133 155.173 41 155.173 43C155.173 45 154.747 46.7867 153.893 48.36C153.067 49.9333 151.907 51.1733 150.413 52.08C148.947 52.96 147.267 53.4 145.373 53.4ZM145.413 51.24C147.627 51.24 149.4 50.48 150.733 48.96C152.093 47.44 152.773 45.4533 152.773 43C152.773 41.3733 152.467 39.9467 151.853 38.72C151.24 37.4667 150.373 36.4933 149.253 35.8C148.133 35.1067 146.853 34.76 145.413 34.76C143.947 34.76 142.653 35.1067 141.533 35.8C140.413 36.4933 139.547 37.48 138.933 38.76C138.32 40.0133 138.013 41.44 138.013 43.04C138.013 44.64 138.32 46.0667 138.933 47.32C139.547 48.5467 140.413 49.5067 141.533 50.2C142.653 50.8933 143.947 51.24 145.413 51.24ZM159.497 36.36C159.337 35.88 159.07 35.4267 158.697 35C158.323 34.5467 157.95 34.2133 157.577 34L158.697 32.32C160.163 33.3067 161.203 34.76 161.817 36.68L166.057 49.52L171.457 33H173.697L179.097 49.52L184.497 33H186.737L180.217 52.96H177.977L172.577 36.44L167.177 52.96H164.897L159.497 36.36ZM37.08 103.68C34.4933 103.68 32.1467 103.08 30.04 101.88C27.96 100.653 26.3067 98.9867 25.08 96.88C23.88 94.7467 23.28 92.3867 23.28 89.8V89.04C23.28 86.4267 23.88 84.0533 25.08 81.92C26.28 79.76 27.92 78.0667 30 76.84C32.08 75.6133 34.3867 75 36.92 75C39.48 75 41.8 75.6133 43.88 76.84C45.96 78.0667 47.6 79.76 48.8 81.92C50 84.0533 50.6 86.4267 50.6 89.04V89.8C50.6 92.44 50.0133 94.8133 48.84 96.92C47.6667 99.0267 46.0533 100.68 44 101.88C41.9467 103.08 39.64 103.68 37.08 103.68ZM36.96 101.44C39.0667 101.44 40.9733 100.933 42.68 99.92C44.3867 98.9067 45.7333 97.52 46.72 95.76C47.7067 93.9733 48.2 91.9867 48.2 89.8V89.04C48.2 86.8267 47.6933 84.8267 46.68 83.04C45.6933 81.2267 44.3333 79.8133 42.6 78.8C40.8933 77.76 38.9867 77.24 36.88 77.24C34.8 77.24 32.9067 77.76 31.2 78.8C29.4933 79.84 28.1467 81.2667 27.16 83.08C26.1733 84.8667 25.68 86.8533 25.68 89.04V89.8C25.68 91.9867 26.1733 93.9733 27.16 95.76C28.1467 97.52 29.4933 98.9067 31.2 99.92C32.9333 100.933 34.8533 101.44 36.96 101.44ZM56.1141 82.92C56.1141 79.5867 56.6341 77.16 57.6741 75.64C58.7407 74.0933 60.4207 73.32 62.7141 73.32C64.5274 73.32 65.9541 73.8533 66.9941 74.92C68.0341 75.9867 68.5541 77.4533 68.5541 79.32C68.5541 81.5867 67.8074 83.3733 66.3141 84.68C64.8474 85.96 62.8874 86.5333 60.4341 86.4L58.5141 86.28V92.92H64.4341V95.08H58.5141V113.4H56.1141V82.92ZM60.4341 84.32C62.2207 84.32 63.6207 83.88 64.6341 83C65.6474 82.0933 66.1541 80.8533 66.1541 79.28C66.1541 78.0533 65.8474 77.12 65.2341 76.48C64.6207 75.8133 63.7541 75.48 62.6341 75.48C61.2207 75.48 60.1807 76.08 59.5141 77.28C58.8474 78.4533 58.5141 80.2933 58.5141 82.8V84.32H60.4341ZM84.5538 77.88C84.1271 77.88 83.7938 78.0267 83.5538 78.32C83.3138 78.5867 83.1938 78.8933 83.1938 79.24H80.9137C80.9137 78.2533 81.2604 77.4133 81.9538 76.72C82.6738 76 83.5004 75.64 84.4338 75.64H102.554V77.88H93.1938V103H90.7938V77.88H84.5538ZM108.9 99.64C108.9 100.013 109.02 100.333 109.26 100.6C109.527 100.84 109.833 100.96 110.18 100.96C110.713 100.96 111.1 100.733 111.34 100.28L113.1 101.6C112.887 102.053 112.513 102.44 111.98 102.76C111.447 103.053 110.847 103.2 110.18 103.2C109.113 103.2 108.233 102.867 107.54 102.2C106.847 101.533 106.5 100.667 106.5 99.6V83H108.9V99.64ZM107.58 80.4C107.127 80.4 106.727 80.24 106.38 79.92C106.06 79.5733 105.9 79.1733 105.9 78.72C105.9 78.24 106.06 77.84 106.38 77.52C106.727 77.1733 107.127 77 107.58 77C108.06 77 108.46 77.1733 108.78 77.52C109.127 77.84 109.3 78.24 109.3 78.72C109.3 79.1733 109.127 79.5733 108.78 79.92C108.46 80.24 108.06 80.4 107.58 80.4ZM147.107 101.6C146.893 102.053 146.52 102.44 145.987 102.76C145.453 103.053 144.853 103.2 144.187 103.2C143.12 103.2 142.24 102.867 141.547 102.2C140.853 101.533 140.507 100.667 140.507 99.6V89C140.427 87.56 140.067 86.5067 139.427 85.84C138.787 85.1467 137.853 84.8 136.627 84.8C134.227 84.8 132.333 86.12 130.947 88.76V103H128.547V89.56C128.547 88.0667 128.227 86.9067 127.587 86.08C126.947 85.2267 125.987 84.8 124.707 84.8C123.48 84.8 122.333 85.1733 121.267 85.92C120.227 86.6667 119.48 87.5867 119.027 88.68V103H116.627V89C116.627 86.8933 116.067 85.3467 114.947 84.36L116.547 82.76C117 83.08 117.44 83.52 117.867 84.08C118.293 84.64 118.613 85.2667 118.827 85.96C119.547 84.8933 120.413 84.08 121.427 83.52C122.467 82.9333 123.627 82.64 124.907 82.64C126.213 82.64 127.333 82.9467 128.267 83.56C129.227 84.1733 129.947 85.08 130.427 86.28C131.173 85.1067 132.067 84.2133 133.107 83.6C134.173 82.96 135.36 82.64 136.667 82.64C138.56 82.64 140.067 83.2267 141.187 84.4C142.333 85.5467 142.907 87.0667 142.907 88.96V99.64C142.907 100.013 143.027 100.333 143.267 100.6C143.533 100.84 143.84 100.96 144.187 100.96C144.72 100.96 145.107 100.733 145.347 100.28L147.107 101.6ZM157.859 103.4C155.859 103.4 154.166 102.987 152.779 102.16C151.393 101.333 150.339 100.2 149.619 98.76C148.926 97.2933 148.579 95.64 148.579 93.8C148.579 91.9867 148.913 90.2267 149.579 88.52C150.273 86.8133 151.299 85.4133 152.659 84.32C154.046 83.2267 155.726 82.68 157.699 82.68C159.006 82.68 160.219 82.9333 161.339 83.44C162.459 83.9467 163.339 84.6667 163.979 85.6C164.646 86.5333 164.979 87.6133 164.979 88.84C164.979 90.8133 164.139 92.3467 162.459 93.44C160.779 94.5067 158.459 95.0267 155.499 95L151.099 94.96C151.339 97.0133 152.019 98.5733 153.139 99.64C154.286 100.707 155.859 101.24 157.859 101.24C159.059 101.24 160.166 101.08 161.179 100.76C162.219 100.413 163.219 99.8933 164.179 99.2L165.379 100.8C164.366 101.6 163.206 102.24 161.899 102.72C160.619 103.173 159.273 103.4 157.859 103.4ZM156.019 92.92C160.393 92.92 162.579 91.5467 162.579 88.8C162.579 87.4667 162.113 86.48 161.179 85.84C160.273 85.1733 159.153 84.84 157.819 84.84C156.326 84.84 155.059 85.2667 154.019 86.12C153.006 86.9733 152.246 88.0267 151.739 89.28C151.233 90.5333 150.979 91.7467 150.979 92.92H156.019Z" fill="white"/>
</g>
<path d="M43.8841 11.4758C34.4655 5.1378 20.8241 8.92518 13.4151 19.9352C6.00615 30.9452 7.63528 45.0086 17.0539 51.3467" stroke="white" stroke-width="3"/>
<path d="M142 117.829C152.117 122.978 168.77 117.761 174.79 105.935C180.81 94.1078 173.918 80.1499 163.8 75" stroke="white" stroke-width="3"/>
<path d="M51.4123 18.1253L36.6642 17.8791L49.0029 3.57316L51.4123 18.1253Z" fill="white"/>
<path d="M135.428 111.921L150.157 112.709L137.301 126.552L135.428 111.921Z" fill="white"/>
<defs>
<filter id="filter0_d_154_1612" x="18.3201" y="23.8398" width="172.417" height="97.5601" filterUnits="userSpaceOnUse" color-interpolation-filters="sRGB">
<feFlood flood-opacity="0" result="BackgroundImageFix"/>
<feColorMatrix in="SourceAlpha" type="matrix" values="0 0 0 0 0 0 0 0 0 0 0 0 0 0 0 0 0 0 127 0" result="hardAlpha"/>
<feOffset dy="4"/>
<feGaussianBlur stdDeviation="2"/>
<feComposite in2="hardAlpha" operator="out"/>
<feColorMatrix type="matrix" values="0 0 0 0 0 0 0 0 0 0 0 0 0 0 0 0 0 0 0.25 0"/>
<feBlend mode="normal" in2="BackgroundImageFix" result="effect1_dropShadow_154_1612"/>
<feBlend mode="normal" in="SourceGraphic" in2="effect1_dropShadow_154_1612" result="shape"/>
</filter>
</defs>
</svg>
